<?xml version="1.0" standalone="no"?>
<!DOCTYPE svg PUBLIC "-//W3C//DTD SVG 20010904//EN"
 "http://www.w3.org/TR/2001/REC-SVG-20010904/DTD/svg10.dtd">
<svg version="1.0" xmlns="http://www.w3.org/2000/svg"
 width="552.000000pt" height="512.000000pt" viewBox="0 0 552.000000 512.000000"
 preserveAspectRatio="xMidYMid meet">

<g transform="translate(0.000000,512.000000) scale(0.100000,-0.100000)"
fill="#000000" stroke="none">
<path d="M0 2560 l0 -2560 1154 0 c1005 0 1155 2 1159 15 4 8 2 17 -4 20 -5 4
-7 11 -4 16 4 5 13 3 21 -6 9 -8 29 -15 45 -15 32 0 40 -16 12 -23 -14 -4 -12
-5 5 -6 12 0 22 5 22 12 0 37 68 42 77 6 7 -27 59 -26 66 1 3 11 1 18 -3 15
-13 -8 -28 25 -23 49 3 20 3 20 -8 -1 -18 -34 -38 -37 -37 -5 0 15 -4 42 -10
60 -11 34 -3 42 18 17 18 -22 40 5 40 48 0 22 6 37 16 41 8 3 13 2 10 -3 -3
-5 3 -20 14 -32 16 -20 19 -21 20 -6 0 9 -4 17 -9 17 -14 0 -22 43 -10 55 7 7
13 5 20 -7 5 -10 16 -15 24 -12 8 4 15 2 15 -2 0 -5 14 -9 30 -10 17 -1 39 -9
50 -19 18 -16 20 -16 20 -2 0 27 24 19 42 -13 11 -20 22 -28 32 -24 19 7 21
-7 4 -24 -9 -9 -7 -12 10 -12 15 0 22 6 22 20 0 11 5 20 10 20 6 0 10 9 10 19
0 31 11 51 29 51 14 1 14 2 -1 11 -26 15 -24 69 2 69 11 0 20 -4 20 -10 0 -22
26 -8 39 22 12 27 12 32 -2 43 -25 18 -23 82 3 90 29 9 40 -2 40 -42 0 -27 -3
-34 -15 -30 -8 4 -17 2 -20 -3 -4 -6 1 -10 9 -10 9 0 16 -5 16 -11 0 -8 5 -7
16 1 12 11 18 10 32 -3 15 -16 15 -17 -6 -17 -12 0 -22 -6 -22 -14 0 -8 -7
-16 -15 -20 -8 -3 -14 -11 -13 -18 2 -7 -7 -14 -19 -16 -21 -3 -27 -15 -26
-50 1 -6 -3 -12 -8 -12 -5 0 -9 -11 -9 -25 0 -28 12 -32 30 -10 7 8 17 12 22
9 6 -4 8 1 4 12 -6 21 9 52 20 41 7 -6 7 -37 2 -82 -2 -16 4 -21 27 -23 17 -2
36 -9 43 -14 19 -16 92 -18 92 -3 0 8 -5 15 -10 17 -19 6 21 50 41 45 11 -3
19 -1 19 4 0 5 7 9 15 9 24 0 29 29 9 51 -17 19 -17 22 -2 47 17 28 48 42 48
21 0 -37 66 -134 92 -134 3 0 10 -3 14 -7 4 -5 18 -8 31 -8 14 0 32 -4 41 -9
9 -4 36 -11 60 -15 42 -6 42 -6 36 19 -4 17 -2 25 7 25 21 0 101 -49 116 -71
10 -13 26 -19 54 -19 27 0 39 -4 39 -14 0 -10 7 -12 21 -9 20 6 20 7 5 18 -25
19 -20 22 29 23 25 1 55 7 67 13 12 7 43 12 68 11 l45 -1 -32 12 c-17 7 -35
15 -39 20 -4 4 -26 7 -49 7 -49 0 -77 22 -49 38 16 9 15 10 -5 17 -19 6 -22
12 -17 35 5 26 2 29 -27 37 -18 4 -38 8 -46 8 -8 0 -16 6 -19 13 -8 24 101 8
139 -21 29 -21 41 -25 76 -20 27 3 61 -1 92 -11 27 -9 52 -16 55 -16 13 0 5
28 -9 34 -8 3 -15 14 -15 25 0 25 -50 54 -71 40 -21 -13 -39 -11 -39 6 0 8 -4
15 -10 15 -5 0 -10 -7 -10 -15 0 -10 -10 -15 -32 -15 -44 0 -110 19 -103 29 7
12 -22 34 -35 26 -15 -9 -40 13 -40 35 0 19 -30 50 -48 50 -7 0 -12 -9 -12
-20 0 -15 -7 -20 -26 -20 -22 0 -25 -4 -22 -27 3 -26 7 -28 45 -29 52 -1 58
-6 42 -35 l-12 -23 -17 22 c-13 15 -28 21 -54 20 -41 -1 -55 7 -38 24 15 15
16 55 2 63 -15 10 -12 25 7 32 10 4 21 10 24 15 3 5 17 10 30 12 39 4 52 15
38 32 -17 20 1 17 36 -6 39 -27 93 -50 116 -50 11 0 19 -5 19 -11 0 -5 4 -8 9
-5 15 10 71 -18 71 -36 0 -12 12 -19 48 -24 26 -3 54 -10 62 -14 28 -14 70
-20 70 -11 0 13 -58 41 -84 41 -31 1 -56 24 -56 53 0 22 6 27 34 33 19 3 37
12 40 20 3 8 15 14 26 14 14 0 20 7 20 23 0 44 12 65 38 72 15 4 29 11 33 16
3 5 24 10 47 12 31 1 42 6 42 18 0 9 -7 20 -16 23 -22 8 -12 29 17 36 13 3 26
15 28 25 4 24 21 37 39 30 6 -2 12 0 12 5 0 24 29 7 44 -25 9 -19 21 -35 26
-35 18 0 10 -17 -12 -27 l-23 -10 24 -8 c15 -4 26 -3 31 4 5 8 23 4 61 -16 46
-23 66 -27 130 -26 94 1 165 30 237 98 42 38 50 43 55 28 4 -10 13 -35 20 -55
8 -21 12 -39 10 -42 -3 -2 9 -14 26 -27 25 -18 28 -25 19 -37 -10 -11 -8 -18
12 -34 18 -14 21 -21 11 -27 -9 -6 -7 -17 9 -48 43 -83 43 -97 -1 -152 -21
-27 -39 -55 -39 -64 0 -14 85 -87 101 -87 4 0 11 5 14 10 15 24 56 3 56 -30 0
-3 8 -13 17 -23 9 -11 17 -24 17 -30 1 -29 36 -126 50 -137 8 -7 15 -19 15
-26 0 -11 29 -14 145 -14 l145 0 0 2560 0 2560 -530 0 c-374 -1 -530 -4 -530
-12 0 -7 -5 -7 -14 1 -10 8 -16 9 -21 1 -3 -5 -17 -10 -31 -10 -13 0 -24 -3
-24 -8 0 -4 -12 -20 -26 -36 -26 -28 -27 -29 -10 -57 9 -16 14 -29 9 -29 -4 0
-1 -5 7 -10 8 -5 24 -9 35 -9 l20 0 -20 9 c-17 7 -17 9 -3 9 17 1 38 -26 38
-48 0 -6 -13 -17 -30 -26 -38 -20 -38 -34 0 -41 35 -8 38 -20 10 -44 -20 -18
-20 -18 7 -28 50 -17 150 -86 131 -90 -9 -2 -25 1 -35 7 -49 26 -72 -42 -28
-83 30 -28 31 -35 7 -52 -15 -12 -14 -13 16 -14 34 0 40 -8 20 -28 -9 -9 -8
-12 5 -12 18 0 23 -15 8 -24 -15 -9 -71 5 -71 18 0 7 -16 18 -36 25 -30 11
-38 11 -45 0 -13 -21 -11 -39 5 -39 8 0 16 -6 19 -14 3 -8 22 -19 42 -26 45
-15 79 -46 71 -66 -3 -9 -10 -13 -15 -10 -16 10 -42 -6 -36 -22 4 -12 -1 -14
-32 -9 -86 14 -172 22 -238 22 -67 0 -70 -1 -83 -28 -8 -16 -20 -31 -27 -33
-8 -3 -11 -12 -9 -19 4 -10 14 -11 40 -3 19 5 38 7 43 4 5 -3 34 3 65 14 30
10 65 18 75 17 19 -1 19 -3 5 -19 -15 -16 -12 -19 48 -47 71 -34 115 -39 124
-16 10 25 30 17 49 -19 11 -19 27 -37 38 -40 10 -2 16 -9 13 -15 -4 -5 0 -14
8 -18 14 -7 13 -29 -1 -181 -14 -140 -15 -190 -6 -271 7 -66 8 -127 2 -178
-13 -114 -16 -120 -50 -132 -26 -9 -29 -14 -23 -33 3 -13 14 -34 24 -48 10
-14 21 -36 25 -50 4 -14 15 -30 24 -37 9 -7 13 -13 8 -13 -4 0 -1 -13 8 -30 8
-16 15 -45 15 -65 0 -21 6 -51 13 -68 33 -79 43 -123 34 -152 -8 -23 -6 -31 8
-41 10 -7 17 -25 18 -39 0 -14 3 -28 8 -31 5 -3 9 -16 9 -29 0 -12 7 -25 15
-29 19 -7 20 -26 1 -26 -16 0 -26 -21 -27 -58 l0 -27 -10 25 c-6 14 -8 42 -4
63 5 33 3 40 -15 44 -25 7 -25 12 -2 29 11 9 13 13 4 14 -21 0 -45 27 -29 33
8 3 6 10 -8 21 -18 14 -18 15 -2 16 9 0 17 4 17 9 0 5 -8 7 -19 4 -24 -6 -31
5 -35 60 -2 25 -7 50 -10 56 -4 6 -4 16 -1 21 3 6 -4 14 -17 19 -13 5 -30 16
-37 25 -7 9 -22 16 -32 16 -20 0 -34 16 -20 24 4 3 8 17 9 32 0 20 -8 29 -34
40 -26 11 -34 20 -34 39 0 14 -4 25 -9 25 -5 0 -13 9 -16 20 -3 11 -13 20 -21
20 -8 0 -14 5 -14 10 0 6 5 10 10 10 6 0 10 4 10 9 0 4 -43 9 -96 10 -61 1
-93 -3 -89 -9 4 -6 -5 -10 -20 -10 -15 0 -24 4 -20 10 3 6 -1 10 -9 10 -19 0
-20 -4 -5 -33 18 -33 29 -37 88 -33 70 5 87 -1 68 -23 -24 -26 -31 -61 -13
-61 23 0 30 -20 12 -39 -20 -22 -20 -45 -1 -61 22 -19 19 -27 -21 -46 -20 -10
-33 -22 -30 -29 2 -7 -4 -15 -15 -18 -47 -13 0 -37 72 -37 30 0 38 -17 18 -37
-8 -8 6 -18 50 -38 66 -30 82 -55 61 -95 -10 -18 -8 -26 10 -45 12 -13 19 -28
16 -34 -4 -6 2 -16 13 -22 10 -7 17 -19 14 -26 -3 -7 0 -20 7 -28 7 -9 14 -39
15 -68 3 -68 1 -64 35 -62 19 1 30 -3 30 -12 0 -13 -17 -18 -51 -15 -13 1 -15
-4 -11 -20 9 -34 41 -60 83 -65 43 -6 49 3 20 34 -21 22 -17 34 17 52 12 6 22
18 22 26 0 19 15 19 34 0 8 -9 18 -16 21 -15 17 1 21 -2 34 -22 19 -31 25
-282 8 -318 -7 -14 -10 -36 -7 -50 6 -23 -5 -70 -23 -97 -4 -7 -10 -48 -14
-92 -4 -57 -10 -81 -19 -81 -21 0 -34 -35 -28 -69 4 -20 2 -31 -5 -31 -6 0
-10 -3 -9 -7 0 -5 -2 -16 -7 -26 -4 -10 -5 -40 -3 -66 4 -37 0 -55 -13 -72
-14 -18 -21 -21 -30 -12 -6 6 -18 9 -26 6 -8 -3 -26 0 -39 8 -20 10 -27 10
-33 1 -8 -14 -33 9 -44 40 -4 11 -12 15 -22 12 -8 -3 -12 -10 -9 -15 3 -5 -2
-6 -10 -3 -8 3 -29 -2 -46 -11 -38 -20 -29 -37 20 -39 28 -1 30 -3 24 -31 -3
-16 -8 -31 -9 -33 -2 -2 -27 1 -56 6 -36 7 -58 7 -66 0 -7 -5 -17 -7 -22 -4
-5 4 -12 2 -16 -4 -3 -5 0 -10 7 -10 9 0 9 -3 -2 -10 -23 -15 -70 -12 -76 5
-4 8 6 27 24 44 27 28 30 29 47 13 17 -16 17 -16 13 4 -4 17 -1 20 23 16 22
-3 29 0 29 12 0 22 -27 31 -45 16 -13 -10 -15 -8 -15 13 0 18 4 25 14 21 8 -3
18 7 26 25 13 33 25 39 33 19 2 -7 7 -10 11 -7 10 9 -4 60 -15 53 -5 -3 -9 2
-9 10 0 9 5 16 12 16 6 0 4 6 -7 13 -19 15 -13 37 11 37 8 0 14 5 14 10 0 6
10 8 24 4 18 -4 25 -1 30 18 13 49 7 56 -61 90 -38 18 -71 31 -75 30 -3 -1
-12 6 -20 15 -11 14 -11 16 7 11 98 -29 152 -46 165 -52 9 -3 24 0 35 8 19 14
17 16 -30 36 -27 12 -58 22 -67 23 -9 1 -15 4 -13 8 5 6 -27 24 -60 33 -52 13
-144 49 -211 81 -67 33 -76 34 -90 20 -11 -11 -26 -13 -57 -9 -23 4 -44 7 -47
6 -46 0 -52 -9 -12 -17 34 -6 63 -25 56 -37 -4 -6 -27 -8 -60 -5 -36 4 -54 2
-57 -6 -3 -9 -8 -9 -19 1 -11 8 -17 9 -20 2 -5 -15 -68 -1 -68 16 0 18 -11 23
-67 30 -38 4 -53 1 -62 -10 -8 -9 -18 -13 -25 -9 -8 4 -8 3 0 -7 7 -6 32 -13
55 -14 24 -2 69 -10 99 -19 30 -9 76 -22 102 -28 55 -12 59 -16 47 -48 -7 -19
-14 -22 -37 -18 -59 12 -67 12 -65 0 2 -7 -4 -13 -12 -13 -8 0 -14 5 -12 12 2
12 -9 13 -129 2 -40 -4 -111 -3 -159 1 l-86 7 7 31 c3 18 11 38 17 46 12 14
12 14 26 82 6 26 21 75 36 110 14 34 25 67 25 73 0 6 21 61 46 121 24 61 45
112 45 115 4 21 -4 40 -17 40 -8 0 -33 10 -55 23 l-39 22 -43 -24 c-115 -65
-290 -152 -298 -149 -6 2 -1 12 9 24 28 30 31 46 10 68 -10 11 -18 28 -18 38
0 13 -8 18 -30 18 -18 0 -33 6 -36 15 -5 12 -20 14 -73 10 -37 -2 -84 -11
-104 -20 -20 -8 -46 -15 -57 -15 -21 0 -100 36 -100 46 0 2 7 21 15 41 8 19
15 53 15 74 0 22 4 39 9 39 5 0 7 -9 4 -20 -4 -16 -2 -19 11 -14 9 3 16 10 16
15 0 5 10 9 23 9 l22 1 -21 17 c-18 15 -19 21 -9 35 17 23 40 21 64 -4 18 -20
48 -19 36 1 -3 5 1 12 8 17 18 10 40 101 36 145 -5 47 -43 115 -98 171 -59 62
-95 84 -151 92 -61 9 -85 22 -70 40 7 8 7 15 1 19 -6 4 -4 19 5 41 8 19 14 61
14 94 0 51 -3 61 -20 66 -11 4 -18 9 -16 13 10 18 15 101 6 107 -5 3 -10 1
-10 -5 0 -6 -4 -8 -10 -5 -5 3 -10 17 -10 31 0 24 -14 32 -25 14 -3 -5 -20 -7
-37 -3 -22 4 -29 3 -24 -5 4 -7 2 -12 -4 -12 -6 0 -10 -8 -8 -17 3 -19 -33
-33 -72 -26 -33 6 -74 -29 -67 -56 3 -14 -2 -21 -17 -25 -56 -15 -89 1 -64 31
10 13 11 17 0 21 -10 3 -10 7 -1 18 10 12 8 16 -10 21 -14 4 -24 16 -28 34 -3
16 -9 29 -14 29 -5 0 -9 7 -9 15 0 8 -4 15 -10 15 -5 0 -10 7 -10 15 0 8 -9
20 -20 27 -31 20 -24 28 23 28 38 0 43 3 45 24 1 15 -5 25 -16 28 -27 7 -92
-3 -86 -13 3 -6 14 -7 25 -4 13 4 19 2 19 -9 0 -21 -31 -20 -83 3 -90 40 -107
44 -180 39 -118 -8 -173 -42 -292 -183 -70 -83 -88 -100 -102 -97 -6 1 -14 -7
-18 -18 -4 -11 -11 -18 -16 -15 -5 4 -9 -2 -9 -13 0 -27 -58 -73 -122 -98 -10
-3 -18 -12 -18 -19 0 -33 -162 -45 -181 -13 -5 7 -14 13 -21 13 -7 0 -13 7
-13 15 0 8 -7 15 -15 15 -8 0 -14 -5 -13 -12 3 -16 -39 -59 -64 -65 -11 -3
-28 1 -39 9 -16 12 -17 15 -4 23 8 5 21 10 29 10 8 0 11 6 7 16 -4 10 3 18 24
26 25 8 29 14 24 34 -4 16 -2 24 7 25 8 1 28 2 44 3 65 4 121 19 133 37 8 12
25 19 44 19 22 0 31 6 35 21 3 11 11 18 19 15 25 -10 25 14 0 26 -33 14 -33
27 -1 20 14 -2 25 -8 25 -13 0 -5 7 -9 15 -9 22 0 18 15 -10 46 -32 34 -32 45
0 31 14 -7 25 -15 25 -19 0 -5 9 -8 21 -8 16 0 20 5 17 28 -3 25 0 27 32 27
33 0 35 2 34 32 -2 44 -35 111 -57 117 -22 6 -18 43 4 37 8 -2 19 -4 25 -5 7
-1 19 -8 28 -15 9 -7 25 -11 35 -8 11 3 28 -1 38 -9 26 -20 43 -17 43 7 0 12
-8 23 -19 26 -12 3 -17 11 -14 19 3 8 -1 14 -10 14 -8 0 -17 3 -20 8 -2 4 -3
2 -1 -3 1 -6 -4 -19 -11 -28 -11 -16 -14 -13 -28 27 -13 37 -13 47 -2 56 13
11 15 57 2 77 -9 14 8 27 23 18 6 -3 10 -13 10 -20 0 -15 29 -35 50 -35 17 0
3 71 -17 85 -21 15 -7 38 18 32 16 -4 19 0 19 30 0 19 4 32 8 29 5 -3 4 28 0
67 -8 61 -14 77 -40 105 -18 17 -38 32 -45 32 -7 0 -13 8 -13 19 0 10 -7 24
-15 31 -8 7 -15 18 -15 26 0 7 -9 18 -20 24 -11 6 -18 15 -15 21 4 5 2 9 -4 9
-6 0 -31 19 -56 43 -26 23 -65 54 -87 70 -32 21 -36 27 -20 27 11 0 23 4 26 8
7 11 -48 52 -77 58 -37 7 -63 57 -34 67 6 2 8 8 4 13 -4 5 -11 4 -15 -2 -6 -9
-35 -10 -112 -5 -9 1 -3 9 15 19 25 15 32 16 43 5 8 -7 17 -11 22 -8 9 5 1 46
-10 55 -3 3 -17 23 -30 45 -27 45 -71 95 -83 95 -5 0 -27 15 -50 34 -49 39
-115 76 -137 76 -9 0 -25 7 -36 15 -16 12 -81 14 -401 15 l-383 0 0 -2560z
m1030 2300 c0 -5 -4 -10 -9 -10 -6 0 -13 5 -16 10 -3 6 1 10 9 10 9 0 16 -4
16 -10z m3687 -132 c-3 -7 -5 -2 -5 12 0 14 2 19 5 13 2 -7 2 -19 0 -25z
m-3658 -22 c18 -10 20 -14 8 -19 -8 -3 -23 -4 -34 -2 -63 13 -73 17 -68 25 9
14 66 12 94 -4z m-65 -110 c7 -9 40 -16 85 -19 40 -2 76 -9 80 -14 3 -6 25
-13 48 -17 29 -4 54 -17 76 -39 19 -17 58 -52 87 -77 60 -51 91 -82 87 -87 -2
-1 -26 5 -53 15 -33 11 -49 22 -46 31 5 16 -15 31 -42 31 -12 0 -16 -5 -13
-14 4 -10 1 -13 -9 -9 -7 3 -14 9 -14 14 0 5 -15 9 -34 9 -18 0 -53 7 -77 16
-34 12 -67 15 -149 10 -104 -5 -105 -5 -70 12 19 9 39 23 43 29 4 7 19 13 32
13 23 0 42 16 32 26 -2 3 -28 9 -57 13 -32 5 -56 15 -62 25 -5 9 -15 16 -22
16 -16 0 -28 25 -18 35 11 11 84 -4 96 -19z m83 13 c-12 -7 -27 -7 -45 0 -25
9 -24 9 18 10 36 0 41 -2 27 -10z m20 -481 c-2 -7 -16 -12 -31 -11 -18 1 -26
-3 -27 -15 0 -13 -2 -14 -6 -3 -3 8 2 20 13 28 23 17 57 17 51 1z m214 -289
c14 -7 24 -7 32 0 7 5 19 6 26 2 22 -14 -23 -33 -67 -29 -26 2 -38 8 -40 21
-4 20 19 23 49 6z m59 -135 c-15 -17 -30 -18 -30 -1 0 7 9 13 21 14 17 2 18
-1 9 -13z m586 -58 c18 -14 18 -15 -9 -20 -57 -12 -73 -13 -97 -7 l-25 7 30
17 c37 20 75 21 101 3z m-1068 -58 c7 -9 6 -17 -3 -25 -10 -10 -14 -9 -19 3
-13 33 1 47 22 22z m1602 -23 c0 -8 -4 -15 -10 -15 -5 0 -7 7 -4 15 4 8 8 15
10 15 2 0 4 -7 4 -15z m-1570 -51 c0 -42 -12 -44 -27 -5 -7 20 -7 33 0 40 16
16 27 3 27 -35z m5 -74 c3 -5 1 -10 -4 -10 -6 0 -11 5 -11 10 0 6 2 10 4 10 3
0 8 -4 11 -10z m1395 -40 c0 -5 -8 -10 -17 -10 -15 0 -16 2 -3 10 19 12 20 12
20 0z m-880 -122 c11 -12 20 -16 20 -10 0 7 4 12 10 12 9 0 26 -66 22 -84 -2
-4 4 -30 13 -56 17 -52 91 -137 143 -164 42 -22 41 -4 -2 34 -32 29 -64 85
-54 96 17 16 67 -48 94 -121 7 -18 19 -30 30 -31 11 0 36 -8 56 -17 21 -9 57
-17 82 -17 52 0 187 25 214 39 13 7 22 7 30 -1 9 -9 16 -8 29 4 22 19 53 20
53 2 0 -7 -8 -18 -17 -24 -17 -9 -17 -11 0 -21 11 -7 16 -17 12 -29 -3 -10 -2
-21 4 -24 5 -3 9 -32 9 -63 -1 -68 -16 -88 -79 -102 -23 -5 -46 -14 -52 -20
-15 -15 -74 -14 -79 1 -4 10 -43 18 -98 20 -20 1 -50 28 -50 45 0 22 -18 15
-22 -9 -2 -19 -10 -24 -41 -26 -33 -3 -37 -6 -31 -24 5 -17 3 -19 -18 -13 -27
9 -48 25 -30 25 20 0 14 18 -8 25 -11 4 -18 11 -15 16 4 5 -5 13 -19 19 -14 5
-38 15 -53 22 -16 7 -42 11 -59 9 -18 -1 -35 2 -39 8 -4 7 11 11 42 12 42 0
45 2 26 11 -13 6 -23 15 -23 20 0 5 10 7 23 6 12 -2 23 2 24 7 3 9 -39 15
-119 17 -18 1 -25 5 -21 15 3 8 14 13 24 10 12 -3 19 0 19 9 0 17 -1 17 -33 5
-22 -8 -23 -7 -19 14 3 19 -3 28 -27 43 -23 14 -28 21 -19 30 9 9 8 12 -6 12
-9 0 -39 23 -67 52 -38 40 -49 58 -49 84 0 34 31 74 56 74 7 0 30 18 50 40 21
22 39 40 40 40 2 0 12 -10 24 -22z m-495 -18 c-16 -17 -45 -28 -45 -16 0 20
17 36 38 36 24 0 25 0 7 -20z m1451 -6 c11 4 18 -1 21 -14 3 -11 9 -20 13 -20
10 0 54 -39 49 -44 -2 -2 -14 -9 -26 -15 -13 -6 -23 -20 -23 -31 0 -40 -32
-99 -62 -114 -48 -25 -54 -15 -52 82 3 119 3 121 21 148 12 19 19 22 29 13 8
-6 21 -8 30 -5z m161 -26 c-3 -8 -6 -5 -6 6 -1 11 2 17 5 13 3 -3 4 -12 1 -19z
m138 -222 c13 -5 15 -10 8 -13 -20 -7 -15 -31 7 -38 32 -10 25 -44 -12 -60
-28 -11 -35 -11 -49 1 -9 8 -15 23 -13 32 1 9 6 39 9 67 6 40 9 47 18 34 7 -8
21 -19 32 -23z m30 -36 c3 -5 1 -10 -4 -10 -6 0 -11 5 -11 10 0 6 2 10 4 10 3
0 8 -4 11 -10z m60 -160 c3 -5 -1 -10 -10 -10 -9 0 -13 5 -10 10 3 6 8 10 10
10 2 0 7 -4 10 -10z m-865 -165 c8 -11 11 -17 6 -13 -4 3 -24 1 -44 -5 -39
-13 -102 -11 -102 3 0 4 27 11 60 15 33 4 60 12 60 18 0 6 1 8 3 6 1 -2 9 -13
17 -24z m300 9 c0 -18 -21 -18 -45 -1 -16 13 -15 14 14 15 21 0 31 -4 31 -14z
m-41 -86 c1 -5 -15 -8 -34 -8 -33 0 -35 2 -25 20 6 11 15 20 21 20 6 0 8 -4 4
-9 -3 -5 -1 -12 5 -16 6 -3 10 4 11 17 0 22 1 22 9 3 5 -11 9 -23 9 -27z
m2561 11 c0 -5 -4 -9 -10 -9 -5 0 -10 7 -10 16 0 8 5 12 10 9 6 -3 10 -10 10
-16z m-153 5 c-3 -3 -12 -4 -19 -1 -8 3 -5 6 6 6 11 1 17 -2 13 -5z m-2299
-81 c41 -27 65 -62 84 -122 9 -30 17 -57 16 -60 -3 -29 7 -49 32 -66 16 -11
30 -24 30 -30 0 -15 -162 -13 -167 3 -3 6 -11 12 -19 12 -8 0 -14 6 -14 13 0
18 -43 37 -80 37 -36 0 -40 20 -10 50 12 12 20 33 20 55 0 30 -4 35 -32 43
-29 8 -31 9 -12 16 16 5 20 13 17 34 -3 21 -2 23 5 8 7 -17 9 -17 15 -3 3 8
21 17 39 20 18 2 37 5 41 5 4 1 20 -6 35 -15z m1031 -175 c-12 -42 -60 -160
-70 -172 -9 -10 -72 34 -101 69 -21 26 -15 33 80 90 93 55 104 56 91 13z
m-1211 -30 c9 -15 13 -31 8 -35 -8 -8 -186 -7 -194 1 -12 13 37 55 68 59 75 9
101 3 118 -25z m-243 -38 c-3 -5 -10 -10 -16 -10 -5 0 -9 5 -9 10 0 6 7 10 16
10 8 0 12 -4 9 -10z m1209 -141 c33 -28 71 -63 83 -79 20 -24 21 -29 8 -40
-12 -10 -20 -9 -40 4 -13 9 -33 16 -43 16 -11 0 -30 8 -43 18 -13 9 -33 22
-44 28 -32 18 -42 59 -20 84 10 11 22 20 28 20 5 0 37 -23 71 -51z m-951 -6
c-7 -2 -19 -2 -25 0 -7 3 -2 5 12 5 14 0 19 -2 13 -5z m1047 -142 c0 -3 -4
-12 -9 -20 -7 -10 -13 -11 -30 -2 -30 17 -26 30 9 29 17 -1 30 -4 30 -7z m868
-119 c6 -18 -15 -14 -22 4 -4 10 -1 14 6 12 6 -2 14 -10 16 -16z m-448 -67 c7
-8 18 -15 25 -15 14 0 28 -27 20 -40 -10 -15 -95 45 -95 67 0 10 39 1 50 -12z
m451 -6 c21 -18 21 -20 4 -14 -11 4 -28 10 -37 12 -10 3 -15 9 -12 14 8 14 20
11 45 -12z m-61 -89 c0 -11 -6 -20 -14 -20 -9 0 -12 7 -9 20 3 11 9 20 14 20
5 0 9 -9 9 -20z m22 -62 c-15 -15 -26 -4 -18 18 5 13 9 15 18 6 9 -9 9 -15 0
-24z m-57 -48 c3 -5 -1 -10 -9 -10 -9 0 -16 5 -16 10 0 6 4 10 9 10 6 0 13 -4
16 -10z m-785 -25 c17 -20 40 -19 41 3 0 14 2 14 9 -3 14 -31 12 -35 -17 -35
l-28 -1 30 -13 c20 -8 25 -14 15 -18 -25 -9 -58 9 -74 40 -20 39 -3 59 24 27z
m645 -24 c3 -5 1 -12 -5 -16 -5 -3 -10 1 -10 9 0 18 6 21 15 7z m62 -49 c-17
-8 -37 8 -37 29 0 22 0 22 23 -2 12 -13 18 -26 14 -27z m817 -1 c10 -15 -5
-41 -23 -41 -23 1 -55 27 -42 35 6 3 16 3 21 0 6 -3 10 -1 10 4 0 13 27 15 34
2z m61 -261 c1 -8 6 -25 13 -37 7 -12 11 -26 11 -30 -4 -15 20 -61 40 -80 19
-18 19 -21 5 -41 -10 -15 -22 -21 -34 -17 -10 3 -21 1 -25 -5 -3 -5 1 -10 10
-10 28 0 -1 -37 -35 -43 -21 -5 -30 -12 -30 -26 0 -11 5 -21 12 -23 6 -2 -2
-14 -19 -26 -35 -24 -153 -43 -153 -24 0 6 6 13 13 16 6 3 2 3 -10 0 -14 -3
-29 2 -42 15 -28 28 -26 49 4 57 20 5 23 9 15 19 -8 10 -8 19 2 34 24 39 64
37 54 -3 -4 -18 -2 -17 15 7 12 15 28 27 36 27 10 0 14 6 11 18 -3 12 2 24 13
31 11 6 19 18 19 26 0 8 5 15 11 15 14 0 2 73 -12 79 -6 1 -2 12 7 23 21 22
69 21 69 -2z m-90 -90 c3 -5 1 -10 -4 -10 -6 0 -11 5 -11 10 0 6 2 10 4 10 3
0 8 -4 11 -10z m85 -190 c0 -5 -4 -10 -10 -10 -5 0 -10 5 -10 10 0 6 5 10 10
10 6 0 10 -4 10 -10z m-450 -34 c0 -3 -4 -8 -10 -11 -5 -3 -10 -1 -10 4 0 6 5
11 10 11 6 0 10 -2 10 -4z m40 -29 c0 -5 -4 -5 -10 -2 -5 3 -10 14 -10 23 0
15 2 15 10 2 5 -8 10 -19 10 -23z m-892 -325 c6 -18 -15 -14 -22 4 -4 10 -1
14 6 12 6 -2 14 -10 16 -16z m-340 -123 c1 -30 -3 -49 -9 -47 -6 2 -10 7 -10
11 1 4 1 25 1 47 0 22 4 40 9 40 5 0 9 -23 9 -51z m51 -129 c35 -65 26 -79
-22 -35 -19 19 -27 36 -27 60 0 19 4 35 9 35 4 0 23 -27 40 -60z m440 -11 c37
-33 37 -34 -1 -43 -23 -5 -27 -2 -37 26 -21 58 -11 63 38 17z m135 16 c3 -8
12 -15 20 -15 7 0 16 -11 18 -25 4 -19 2 -23 -7 -15 -7 6 -19 8 -28 4 -19 -7
-40 27 -31 50 8 20 20 20 28 1z"/>
<path d="M1505 2930 c3 -5 8 -10 11 -10 2 0 4 5 4 10 0 6 -5 10 -11 10 -5 0
-7 -4 -4 -10z"/>
<path d="M2670 2920 c0 -5 5 -10 10 -10 6 0 10 5 10 10 0 6 -4 10 -10 10 -5 0
-10 -4 -10 -10z"/>
<path d="M868 5113 c7 -3 16 -2 19 1 4 3 -2 6 -13 5 -11 0 -14 -3 -6 -6z"/>
<path d="M920 5099 c14 -11 49 -35 78 -55 29 -19 55 -41 58 -49 4 -8 12 -15
18 -15 13 0 56 -53 56 -70 0 -5 6 -10 14 -10 8 0 17 -9 21 -20 3 -11 26 -39
50 -62 25 -24 45 -46 45 -51 0 -7 15 -25 105 -122 22 -24 45 -49 52 -57 39
-45 153 -148 183 -164 19 -10 43 -29 53 -41 19 -24 48 -31 141 -37 48 -3 63
-9 83 -30 13 -14 33 -26 43 -26 22 0 28 -19 8 -21 -42 -3 76 -20 172 -24 126
-5 146 -8 156 -18 4 -4 21 -7 37 -7 28 0 29 -2 23 -32 -3 -20 -3 -28 3 -20 6
10 10 8 14 -10 4 -15 1 -27 -8 -34 -8 -6 -15 -17 -15 -24 0 -16 30 -39 51 -40
9 0 19 -9 22 -20 4 -16 10 -18 35 -11 25 8 31 6 42 -14 7 -13 18 -21 26 -18 8
3 14 0 14 -6 0 -6 -4 -11 -10 -11 -5 0 -10 -4 -10 -10 0 -15 22 -12 48 6 20
14 21 17 7 30 -18 18 -20 55 -4 71 8 8 5 14 -10 22 -16 9 -21 21 -21 51 0 38
2 40 30 40 17 0 30 5 31 13 0 15 21 -32 24 -56 3 -29 22 -42 40 -27 18 15 20
76 3 83 -7 2 -9 8 -5 13 4 5 12 2 16 -5 5 -7 31 -14 61 -16 28 -1 56 -7 61
-12 14 -14 -27 -54 -48 -46 -14 5 -15 1 -10 -25 4 -19 2 -32 -3 -32 -16 0 -11
-30 5 -36 8 -4 15 -13 15 -20 0 -24 28 -27 58 -6 45 33 57 32 53 -5 -1 -19 2
-33 8 -33 6 0 11 -9 11 -20 0 -11 4 -20 9 -20 5 0 16 -3 24 -6 11 -4 17 3 20
23 4 27 5 27 12 6 8 -25 20 -30 29 -10 4 6 4 2 2 -11 -3 -14 1 -25 10 -29 22
-8 94 29 94 49 0 14 5 15 29 8 33 -9 41 -5 41 23 0 29 31 87 46 87 8 0 14 10
14 25 0 18 -5 25 -19 25 -27 0 -43 24 -39 62 2 23 9 34 23 37 11 2 33 14 49
28 27 23 34 24 155 21 150 -3 166 3 182 68 13 51 22 57 99 73 45 10 65 21 110
64 30 29 66 67 80 86 14 18 38 45 54 60 45 40 49 45 76 79 14 18 31 32 38 32
6 0 12 6 12 14 0 7 12 26 27 42 15 16 26 34 25 40 -1 7 9 15 23 18 14 4 29 14
32 24 8 20 50 62 64 62 5 0 9 4 9 9 0 5 18 22 40 38 22 15 40 33 40 38 0 6 18
27 40 48 22 20 40 39 40 42 0 3 -775 5 -1722 5 l-1723 0 25 -21z m2004 -934
c-4 -8 -10 -15 -14 -15 -4 0 -10 7 -14 15 -4 10 1 15 14 15 13 0 18 -5 14 -15z
m-537 -81 c-3 -3 -12 -4 -19 -1 -8 3 -5 6 6 6 11 1 17 -2 13 -5z m33 -4 c0 -5
-4 -10 -10 -10 -5 0 -10 5 -10 10 0 6 5 10 10 10 6 0 10 -4 10 -10z m570 -136
c0 -2 -7 -4 -15 -4 -8 0 -15 4 -15 10 0 5 7 7 15 4 8 -4 15 -8 15 -10z"/>
<path d="M4310 4740 c20 -13 40 -13 40 0 0 6 -12 10 -27 10 -22 0 -25 -2 -13
-10z"/>
<path d="M1506 4385 c4 -8 8 -15 10 -15 2 0 4 7 4 15 0 8 -4 15 -10 15 -5 0
-7 -7 -4 -15z"/>
<path d="M4206 4243 c-2 -2 -25 -6 -51 -8 -49 -4 -74 -24 -75 -59 0 -15 5 -17
28 -11 15 4 42 6 60 6 25 -1 32 3 32 18 0 16 9 21 44 26 62 10 70 35 11 33
-24 0 -46 -2 -49 -5z m-43 -29 c11 -11 -3 -24 -18 -18 -8 4 -12 10 -9 15 6 11
18 12 27 3z"/>
<path d="M2545 4150 c3 -5 8 -10 11 -10 2 0 4 5 4 10 0 6 -5 10 -11 10 -5 0
-7 -4 -4 -10z"/>
<path d="M2634 4075 c-3 -8 -4 -20 -2 -27 3 -7 7 -1 10 15 6 29 1 36 -8 12z"/>
<path d="M4165 4080 c3 -6 0 -7 -8 -4 -8 3 -21 -6 -31 -21 -26 -39 -7 -65 47
-65 36 0 47 5 66 30 18 25 20 33 9 44 -15 15 -91 30 -83 16z"/>
<path d="M1727 3986 c-4 -10 -5 -21 -2 -24 9 -9 17 6 13 25 -3 17 -4 17 -11
-1z"/>
<path d="M4465 3990 c-3 -5 -1 -10 4 -10 6 0 11 5 11 10 0 6 -2 10 -4 10 -3 0
-8 -4 -11 -10z"/>
<path d="M2557 3952 c-9 -10 -17 -22 -17 -25 0 -8 31 -4 48 6 7 5 12 4 12 -2
0 -6 5 -11 10 -11 6 0 10 9 10 21 0 14 -5 19 -14 16 -7 -3 -18 -1 -23 4 -6 6
-16 3 -26 -9z"/>
<path d="M2756 3924 c-9 -25 10 -41 32 -28 24 15 21 38 -4 42 -13 2 -24 -4
-28 -14z"/>
<path d="M3338 3843 c7 -3 16 -2 19 1 4 3 -2 6 -13 5 -11 0 -14 -3 -6 -6z"/>
<path d="M2068 3827 c-15 -12 -15 -14 3 -25 23 -15 89 -16 89 -2 0 6 -13 10
-29 10 -32 0 -50 15 -29 23 9 4 8 6 -2 6 -8 0 -23 -5 -32 -12z"/>
<path d="M3347 3823 c-21 -5 -20 -47 1 -49 23 -3 23 -4 7 -20 -9 -9 -15 -24
-13 -33 5 -26 35 -24 54 4 15 23 15 28 3 36 -12 8 -11 11 4 20 9 6 15 15 12
20 -4 5 -10 7 -15 4 -4 -3 -10 2 -14 10 -6 15 -8 16 -39 8z"/>
<path d="M4525 3749 c-9 -14 -2 -20 14 -10 8 6 9 11 3 15 -6 3 -14 1 -17 -5z"/>
<path d="M4387 3654 c-3 -3 -29 -6 -59 -7 -47 -2 -53 -5 -56 -25 -2 -12 -10
-22 -19 -22 -14 0 -14 -2 0 -18 10 -10 17 -29 17 -41 0 -18 5 -22 23 -19 12 2
27 -3 33 -11 25 -33 103 34 87 75 -3 8 -1 14 5 14 21 0 20 29 -2 44 -13 8 -26
13 -29 10z"/>
<path d="M3635 3620 c-45 -5 -90 -17 -125 -35 -30 -15 -61 -28 -68 -28 -7 0
-37 -24 -66 -52 -98 -96 -151 -281 -116 -407 12 -43 64 -91 117 -108 21 -7 43
-16 48 -20 13 -10 97 -27 167 -35 71 -8 197 18 249 51 57 35 108 95 120 139
17 60 18 116 3 154 -19 46 -18 91 3 106 16 12 16 15 2 32 -9 10 -21 33 -27 51
-14 41 -50 92 -65 92 -7 0 -23 9 -37 20 -14 11 -32 20 -41 20 -9 0 -30 7 -45
15 -16 8 -33 14 -39 13 -5 0 -41 -4 -80 -8z m63 -262 c-4 -27 -33 -36 -42 -13
-8 22 1 35 25 35 15 0 20 -6 17 -22z"/>
<path d="M2305 3560 c-3 -5 -1 -10 4 -10 6 0 11 5 11 10 0 6 -2 10 -4 10 -3 0
-8 -4 -11 -10z"/>
<path d="M2248 3523 c6 -2 18 -2 25 0 6 3 1 5 -13 5 -14 0 -19 -2 -12 -5z"/>
<path d="M3215 2998 c-2 -7 -5 -20 -8 -28 -5 -20 35 -50 66 -50 35 0 41 14 13
30 -13 7 -29 23 -35 36 -11 26 -29 32 -36 12z"/>
<path d="M3967 2913 c-4 -3 -7 -13 -7 -21 0 -12 3 -12 16 -1 9 7 31 12 48 10
17 -1 29 -1 26 2 -10 9 -76 17 -83 10z"/>
<path d="M2995 2849 c-9 -16 -20 -29 -25 -29 -19 0 -10 -19 12 -26 20 -6 20
-8 5 -19 -25 -18 -21 -25 13 -25 19 0 30 5 30 14 0 7 8 16 18 18 28 8 18 70
-14 85 -22 10 -26 8 -39 -18z"/>
<path d="M3100 2866 c0 -24 17 -28 23 -6 3 13 0 20 -9 20 -8 0 -14 -6 -14 -14z"/>
<path d="M4199 2826 c-25 -21 -25 -23 -8 -34 20 -13 52 -6 43 9 -3 5 2 12 11
15 12 5 13 9 4 20 -15 18 -19 18 -50 -10z"/>
<path d="M2890 2810 c0 -5 5 -10 10 -10 6 0 10 5 10 10 0 6 -4 10 -10 10 -5 0
-10 -4 -10 -10z"/>
<path d="M4115 2770 c3 -5 8 -10 11 -10 2 0 4 5 4 10 0 6 -5 10 -11 10 -5 0
-7 -4 -4 -10z"/>
<path d="M3045 2750 c5 -17 2 -20 -22 -20 l-28 -1 23 -18 c13 -12 20 -25 16
-35 -4 -10 4 -26 20 -42 21 -22 28 -24 41 -14 18 15 19 45 4 106 -10 37 -15
44 -36 44 -20 0 -23 -4 -18 -20z"/>
<path d="M4160 2741 c0 -25 6 -27 13 -6 4 8 2 17 -3 20 -6 4 -10 -3 -10 -14z"/>
<path d="M3910 2650 c19 -13 30 -13 30 0 0 6 -10 10 -22 10 -19 0 -20 -2 -8
-10z"/>
<path d="M4155 2631 c-3 -6 -17 -8 -29 -5 -14 3 -29 -1 -39 -10 -13 -14 -18
-14 -45 -1 -32 17 -85 11 -103 -11 -6 -7 -16 -12 -22 -10 -7 1 -9 1 -4 -1 4
-3 7 -11 7 -18 0 -8 7 -11 20 -8 28 7 25 -12 -6 -34 -32 -24 -57 -86 -40 -103
8 -8 -7 -10 -55 -9 -68 2 -94 -5 -84 -22 4 -5 -4 -9 -17 -9 -13 0 -31 -7 -42
-15 -17 -13 -16 -14 15 -19 83 -11 238 -26 278 -26 51 0 143 -15 213 -35 48
-13 92 -10 82 6 -2 5 -27 11 -54 15 -28 4 -50 10 -50 15 0 5 -8 9 -17 9 -10 1
-29 7 -43 15 l-25 14 33 1 c23 0 32 4 28 13 -3 6 -9 20 -12 30 -4 9 -12 17
-18 17 -7 0 -16 19 -22 43 -5 23 -15 43 -21 43 -7 1 -28 2 -47 3 -23 1 -35 7
-38 19 -6 21 18 24 75 10 27 -6 41 -16 48 -36 l10 -26 13 24 c10 20 10 27 0
32 -15 9 -7 46 14 71 8 9 13 20 10 23 -3 3 -9 1 -13 -5z m-198 -157 c-3 -3
-12 -4 -19 -1 -8 3 -5 6 6 6 11 1 17 -2 13 -5z"/>
<path d="M3760 2461 c0 -10 30 -24 37 -17 3 2 -5 9 -16 16 -12 6 -21 7 -21 1z"/>
<path d="M3674 2310 c16 -5 33 -7 38 -4 5 3 15 0 23 -6 8 -6 23 -9 34 -5 31
10 34 -12 4 -27 -16 -8 -28 -21 -28 -32 0 -18 11 -19 150 -23 209 -5 442 -38
499 -71 5 -3 26 -5 45 -5 20 0 42 -7 50 -14 16 -17 46 -13 46 6 0 8 9 17 20
22 17 6 15 8 -10 8 -16 1 -42 8 -57 15 -16 8 -49 18 -75 22 -27 4 -57 13 -68
20 -11 8 -34 14 -52 14 -17 0 -34 4 -37 8 -3 5 -63 12 -133 16 -111 6 -224 23
-170 25 10 1 17 7 14 14 -4 11 -21 12 -130 7 -21 -1 -44 3 -50 9 -6 6 -40 11
-76 10 -54 -1 -61 -2 -37 -9z m836 -160 c0 -5 -2 -10 -4 -10 -3 0 -8 5 -11 10
-3 6 -1 10 4 10 6 0 11 -4 11 -10z"/>
<path d="M4525 2300 c-28 -5 -28 -6 -7 -12 25 -7 30 -28 7 -28 -8 0 -15 -5
-15 -11 0 -6 8 -8 19 -4 13 4 24 0 31 -12 10 -16 11 -16 6 -1 -3 10 2 22 12
27 10 6 12 11 5 11 -19 0 -15 18 5 22 30 7 -30 14 -63 8z"/>
<path d="M3736 2180 c11 -11 114 -31 126 -24 15 10 68 11 68 2 0 -6 11 -8 25
-6 17 4 26 0 30 -11 6 -20 51 -38 82 -33 15 2 20 8 16 19 -8 19 17 35 34 22
12 -11 33 -4 33 10 0 12 -80 20 -265 27 -116 4 -157 2 -149 -6z"/>
<path d="M4201 2151 c-11 -7 -10 -11 5 -19 18 -10 18 -11 0 -30 -20 -23 -18
-57 4 -57 8 0 17 -3 20 -6 3 -3 26 -15 52 -27 l46 -20 6 21 5 21 24 -22 c13
-12 35 -22 49 -22 14 0 28 -7 32 -15 3 -8 17 -15 32 -15 21 0 25 4 21 20 -6
23 14 43 36 34 8 -3 18 -1 21 5 9 14 -23 47 -54 55 -14 4 -38 13 -55 21 -83
38 -110 47 -139 51 -17 1 -44 6 -61 9 -16 3 -36 1 -44 -4z"/>
<path d="M4130 2120 c0 -5 15 -10 33 -9 27 0 29 2 12 9 -28 12 -45 12 -45 0z"/>
<path d="M4420 1941 c0 -5 7 -12 16 -15 14 -5 15 -4 4 9 -14 17 -20 19 -20 6z"/>
<path d="M4480 1910 c0 -6 7 -10 15 -10 8 0 15 2 15 4 0 2 -7 6 -15 10 -8 3
-15 1 -15 -4z"/>
<path d="M4370 1709 c0 -6 5 -19 10 -30 11 -20 54 -26 65 -9 3 6 1 10 -4 10
-6 0 -11 6 -11 14 0 14 -21 26 -46 26 -8 0 -14 -5 -14 -11z"/>
<path d="M4190 1456 c0 -9 5 -16 10 -16 6 0 10 4 10 9 0 6 -4 13 -10 16 -5 3
-10 -1 -10 -9z"/>
<path d="M4338 803 c7 -3 16 -2 19 1 4 3 -2 6 -13 5 -11 0 -14 -3 -6 -6z"/>
<path d="M4210 601 c0 -12 6 -21 15 -21 8 0 15 4 15 9 0 5 -7 14 -15 21 -13
10 -15 9 -15 -9z"/>
<path d="M4135 570 c-3 -5 3 -10 15 -10 12 0 18 5 15 10 -3 6 -10 10 -15 10
-5 0 -12 -4 -15 -10z"/>
<path d="M3889 286 c-1 -1 -3 -11 -4 -23 -3 -27 52 -60 81 -49 18 7 18 8 2 20
-10 7 -18 20 -18 28 0 10 -12 17 -30 20 -16 3 -31 4 -31 4z"/>
<path d="M4020 256 c0 -15 24 -28 34 -19 7 7 -13 33 -25 33 -5 0 -9 -6 -9 -14z"/>
<path d="M4145 260 c-10 -16 7 -31 23 -21 10 6 10 10 -2 20 -10 9 -16 9 -21 1z"/>
<path d="M4198 234 c0 -5 -2 -16 -2 -24 -1 -15 -24 -17 -62 -5 -15 5 -23 2
-28 -11 -3 -9 -5 -19 -3 -21 7 -6 59 -6 120 1 36 4 57 3 57 -4 0 -5 10 -10 22
-10 17 0 19 3 10 12 -7 7 -12 20 -12 29 0 11 -12 19 -36 23 -19 4 -42 10 -50
13 -8 3 -15 1 -16 -3z"/>
<path d="M2680 200 c0 -5 5 -10 10 -10 6 0 10 5 10 10 0 6 -4 10 -10 10 -5 0
-10 -4 -10 -10z"/>
<path d="M4044 116 c-9 -14 -23 -26 -30 -26 -26 0 -14 -28 17 -39 41 -14 71 0
34 17 -36 17 -31 30 13 34 44 4 52 31 10 36 -20 2 -31 -4 -44 -22z"/>
<path d="M4145 120 c-7 -12 27 -22 37 -12 6 6 1 12 -11 15 -12 3 -23 2 -26 -3z"/>
<path d="M3455 100 c3 -5 16 -10 28 -10 18 0 19 2 7 10 -20 13 -43 13 -35 0z"/>
<path d="M3947 83 c-4 -3 -7 -15 -7 -25 0 -13 7 -18 25 -18 27 0 33 18 13 38
-14 14 -22 15 -31 5z"/>
<path d="M3758 74 c-8 -7 2 -44 12 -44 8 0 20 24 20 41 0 10 -23 12 -32 3z"/>
<path d="M4137 33 c-12 -11 -8 -23 8 -23 8 0 15 7 15 15 0 16 -12 20 -23 8z"/>
<path d="M4225 32 c-16 -17 0 -29 41 -30 33 -2 45 1 42 10 -5 13 -73 29 -83
20z"/>
<path d="M3755 10 c3 -5 10 -10 16 -10 5 0 9 5 9 10 0 6 -7 10 -16 10 -8 0
-12 -4 -9 -10z"/>
</g>
</svg>
